<?xml version="1.0" standalone="no"?>
<!DOCTYPE svg PUBLIC "-//W3C//DTD SVG 20010904//EN"
 "http://www.w3.org/TR/2001/REC-SVG-20010904/DTD/svg10.dtd">
<svg version="1.0" xmlns="http://www.w3.org/2000/svg"
 width="1920.000000pt" height="1920.000000pt" viewBox="0 0 1920.000000 1920.000000"
 preserveAspectRatio="xMidYMid meet">
<metadata>
Created by potrace 1.14, written by Peter Selinger 2001-2017
</metadata>
<g transform="translate(0.000000,1920.000000) scale(0.100000,-0.100000)"
fill="#000000" stroke="none">
<path d="M1714 14336 c-97 -24 -196 -102 -242 -193 -92 -180 -13 -406 173
-494 56 -27 107 -34 770 -118 1167 -147 1065 -137 1106 -119 20 9 49 32 64 52
25 32 29 54 56 258 34 267 34 271 9 324 -37 76 -35 76 -700 159 -327 41 -719
90 -870 110 -305 39 -295 38 -366 21z"/>
<path d="M12915 13620 c8 -149 65 -1017 78 -1200 l12 -165 708 -3 c586 -2 707
0 707 11 0 28 -43 144 -78 211 -72 138 -240 284 -390 338 l-62 22 0 278 c0
227 2 278 14 278 7 0 25 11 40 25 39 36 37 94 -5 129 l-31 26 -215 0 -215 0
-29 -29 c-50 -51 -38 -94 42 -157 11 -8 13 -61 11 -280 l-3 -269 -72 -27 c-40
-15 -103 -48 -141 -73 -38 -25 -70 -44 -72 -43 -1 2 -34 111 -73 243 -39 132
-107 362 -151 510 l-81 270 6 -95z"/>
<path d="M7230 13490 c-382 -64 -904 -152 -1160 -195 -256 -43 -468 -81 -472
-84 -3 -3 29 -217 73 -476 43 -258 79 -473 79 -476 0 -3 645 -6 1434 -5 789 1
1433 3 1431 6 -2 3 -31 19 -64 35 -62 29 -72 43 -47 65 22 18 38 76 31 110 -3
16 -23 46 -44 67 l-38 38 51 273 c29 149 48 272 44 272 -5 0 -72 -32 -151 -71
l-142 -72 -66 36 -66 36 -17 -37 c-9 -20 -25 -48 -35 -61 l-19 -24 -7 44 c-4
24 -26 159 -50 299 -24 140 -46 274 -50 298 -4 23 -10 42 -13 41 -4 -1 -320
-54 -702 -119z"/>
<path d="M5840 11720 c0 -5 42 -93 92 -195 60 -119 98 -185 108 -185 21 0 901
148 905 152 2 2 -17 53 -42 114 -44 111 -44 112 -81 117 -75 10 -982 8 -982
-3z"/>
<path d="M7332 11723 c-157 -3 -203 -6 -199 -16 3 -6 19 -48 37 -93 l32 -81
51 8 c29 5 64 11 80 15 15 3 27 2 27 -3 0 -18 -43 -44 -86 -52 -25 -5 -47 -10
-48 -12 -2 -2 43 -124 101 -270 l106 -267 684 -7 c376 -4 686 -5 689 -2 3 2
-39 179 -93 393 l-98 389 -540 0 c-297 0 -632 -1 -743 -2z"/>
<path d="M8870 11721 c0 -16 180 -736 190 -758 10 -23 11 -23 230 -23 180 0
222 3 226 14 3 8 -4 174 -15 369 -12 195 -21 366 -21 381 l0 26 -305 0 c-174
0 -305 -4 -305 -9z"/>
<path d="M13040 11693 c0 -57 48 -734 52 -738 5 -5 706 -10 712 -5 2 3 16 161
30 350 14 190 28 364 31 388 l5 42 -415 0 -415 0 0 -37z"/>
<path d="M14110 11713 c-1 -10 -14 -184 -29 -388 -16 -203 -27 -373 -24 -377
2 -5 87 -8 189 -8 l184 0 0 395 0 395 -160 0 c-146 0 -160 -2 -160 -17z"/>
<path d="M6797 11415 c-65 -12 -120 -25 -123 -28 -4 -3 1 -45 10 -94 9 -48 27
-144 40 -213 l22 -125 207 -3 c114 -1 207 -1 207 2 0 5 -114 295 -144 366 -13
30 -29 70 -36 88 -15 39 -18 39 -183 7z"/>
<path d="M6800 10683 c0 -21 19 -131 90 -520 l54 -293 322 0 323 0 -14 38 c-7
20 -50 129 -95 242 -44 113 -99 251 -122 307 -22 57 -43 101 -47 99 -3 -2 -7
8 -7 22 -1 15 -11 48 -22 74 l-21 47 -230 1 c-215 0 -231 -1 -231 -17z"/>
<path d="M7540 10690 c0 -5 6 -24 14 -42 34 -80 194 -483 276 -695 17 -46 35
-83 38 -83 4 0 278 -3 610 -7 354 -3 602 -2 602 3 0 5 -47 194 -103 419 l-103
410 -667 3 c-428 1 -667 -1 -667 -8z"/>
<path d="M9228 10280 l105 -420 125 0 124 0 -6 103 c-10 151 -25 422 -32 590
l-7 147 -207 0 -207 0 105 -420z"/>
<path d="M13114 10578 c3 -68 9 -157 13 -200 l6 -76 -79 -7 c-44 -4 -92 -10
-109 -14 l-30 -7 -3 -207 -2 -207 407 2 408 3 27 350 c14 193 28 380 31 418
l6 67 -341 0 -341 0 7 -122z"/>
<path d="M14030 10671 c0 -16 -7 -112 -15 -213 -8 -101 -19 -257 -25 -348 -6
-91 -13 -184 -16 -207 l-5 -43 230 0 231 0 0 420 0 420 -200 0 -200 0 0 -29z"/>
<path d="M12220 10208 c-206 -22 -385 -42 -397 -44 -21 -4 -23 -10 -23 -78 0
-40 3 -107 6 -149 l7 -77 428 0 429 0 0 195 0 195 -37 -1 c-21 -1 -207 -19
-413 -41z"/>
<path d="M11435 10123 c-66 -6 -221 -24 -345 -38 -124 -14 -297 -34 -385 -43
l-160 -17 3 -75 c2 -41 6 -78 9 -82 2 -5 231 -8 509 -8 l504 0 -1 78 c-1 42
-4 104 -8 137 l-6 60 -120 -12z"/>
<path d="M10205 9990 c-38 -4 -142 -15 -230 -24 -237 -25 -235 -25 -235 -51 0
-57 -12 -55 295 -55 l284 0 -5 38 c-12 87 -16 102 -27 101 -7 -1 -43 -5 -82
-9z"/>
<path d="M8163 9613 c-106 -2 -193 -6 -193 -9 0 -3 22 -60 49 -127 114 -282
281 -707 281 -715 0 -5 71 -12 158 -15 216 -9 902 -9 902 1 0 4 -49 201 -108
437 l-108 430 -395 0 c-217 0 -481 -1 -586 -2z"/>
<path d="M9400 9608 c0 -7 48 -205 106 -440 81 -326 110 -428 122 -428 13 0
14 16 9 108 -4 59 -14 247 -23 417 -8 171 -17 320 -20 333 -4 21 -9 22 -99 22
-69 0 -95 -3 -95 -12z"/>
<path d="M9777 9613 c-2 -5 16 -192 40 -417 37 -334 42 -410 31 -417 -7 -4
-38 -11 -68 -14 -150 -17 -77 -23 279 -24 l383 -1 -5 33 c-3 17 -24 205 -47
417 -22 212 -43 395 -46 408 l-4 22 -280 0 c-153 0 -281 -3 -283 -7z"/>
<path d="M10586 9588 c2 -18 22 -202 44 -408 22 -206 43 -390 46 -407 l5 -33
455 0 455 0 -6 278 c-3 152 -8 350 -11 440 l-6 162 -493 0 -494 0 5 -32z"/>
<path d="M11815 9373 c3 -137 8 -335 11 -440 l6 -193 419 0 419 0 0 440 0 440
-430 0 -431 0 6 -247z"/>
<path d="M12910 9180 l0 -440 364 0 365 0 6 43 c9 71 62 821 58 830 -2 4 -182
7 -399 7 l-394 0 0 -440z"/>
<path d="M13955 9608 c-6 -21 -65 -772 -65 -834 l0 -34 202 2 203 3 12 37 c10
30 123 791 123 827 0 17 -469 15 -475 -1z"/>
<path d="M6994 9593 c3 -10 10 -45 16 -78 5 -33 12 -69 14 -80 2 -11 9 -54 16
-95 10 -63 32 -115 139 -330 l127 -255 362 -3 c199 -1 362 1 362 5 0 5 -75
198 -167 430 l-168 423 -353 0 c-332 0 -353 -1 -348 -17z"/>
<path d="M8489 8491 l-76 -6 99 -250 c54 -137 103 -259 108 -270 5 -11 19 -46
30 -77 18 -49 25 -58 46 -58 26 0 846 148 851 154 2 2 -25 118 -60 257 l-63
254 -430 1 c-236 0 -463 -2 -505 -5z"/>
<path d="M9680 8486 c0 -19 107 -446 114 -453 3 -3 35 0 73 7 60 10 69 9 79
-5 11 -15 33 -15 281 11 147 15 272 30 276 34 4 4 -2 100 -15 213 l-22 207
-393 0 c-329 0 -393 -2 -393 -14z"/>
<path d="M10710 8468 c0 -41 36 -358 41 -362 2 -2 126 9 274 24 149 16 338 35
420 42 l150 13 3 95 c2 52 0 123 -3 158 l-7 62 -439 0 -439 0 0 -32z"/>
<path d="M11835 8363 c4 -76 9 -140 11 -142 4 -4 759 86 802 96 21 5 22 10 22
94 l0 89 -421 0 -421 0 7 -137z"/>
<path d="M12910 8424 l0 -77 33 5 c17 3 137 18 265 34 l232 28 0 27 c0 62 12
59 -271 59 l-259 0 0 -76z"/>
<path d="M7440 8486 c0 -2 36 -78 81 -170 49 -100 85 -163 91 -159 7 4 8 1 3
-6 -4 -8 12 -52 41 -109 82 -164 193 -255 346 -283 52 -10 84 -9 183 6 127 18
153 21 198 23 24 2 27 5 22 25 -4 12 -65 169 -137 350 l-130 327 -349 0 c-192
0 -349 -2 -349 -4z"/>
<path d="M7680 5253 c0 -4 21 -71 47 -149 l47 -142 -47 -52 c-55 -62 -120
-188 -143 -280 -21 -84 -21 -235 0 -323 87 -364 462 -594 826 -506 243 58 439
254 505 504 21 78 21 250 0 330 -22 87 -87 212 -141 274 l-48 53 47 142 c26
78 47 145 47 149 0 4 -256 7 -570 7 -313 0 -570 -3 -570 -7z m668 -620 c69
-52 91 -135 58 -214 -50 -121 -229 -132 -300 -20 -24 38 -30 67 -28 127 2 40
69 117 114 132 48 16 117 5 156 -25z"/>
<path d="M12915 5208 l-18 -53 -86 -21 c-302 -74 -506 -315 -528 -624 -15
-213 87 -442 255 -575 218 -173 493 -202 737 -77 120 62 243 182 298 292 128
258 92 562 -92 771 l-40 46 20 54 c12 30 36 96 55 147 l33 92 -308 0 -308 0
-18 -52z m107 -553 c58 -20 94 -58 109 -115 16 -61 5 -112 -34 -157 -80 -91
-207 -84 -274 16 -12 18 -25 48 -29 66 -14 75 43 168 117 192 48 15 59 15 111
-2z"/>
</g>
</svg>
